# xmcd
#
# Track frame offsets: 
#        150
#        14137
#        24679
#        35577
#        49584
#        63388
#        77361
#        90923
#        102506
#        115304
#        127975
#        140660
#        153915
#        166160
#        176693
#        188529
#        200535
#        214976
#        225679
#        237615
#
# Disc length: 3300 seconds
#
# Revision: 0
# Processed by: cddbd v1.5.2PL0 Copyright (c) Steve Scherf et al.
# Submitted via: ExactAudioCopy v1.0b3
#
DISCID=100ce214
DTITLE=Otis Rush - Double Trouble
DYEAR=2012
DGENRE=Blues
TTITLE0=I Can't Quit You Baby
TTITLE1=Sit Down Baby
TTITLE2=Violent Love
TTITLE3=My Love Will Never Die
TTITLE4=Groaning the Blues
TTITLE5=If You Were Mine
TTITLE6=I Love That Woman
TTITLE7=Jump Sister Bessie
TTITLE8=Three Times a Fool
TTITLE9=She's a Good 'Un
TTITLE10=It Takes Time
TTITLE11=Checking On My Baby
TTITLE12=Double Trouble
TTITLE13=Keep On Loving Me Baby
TTITLE14=All Your Love (I Miss Loving)
TTITLE15=My Baby's a Good 'Un
TTITLE16=So Many Roads, So Many Trains
TTITLE17=I'm Satisfied
TTITLE18=You Know My Love
TTITLE19=I Can't Stop Baby
EXTD=
EXTT0=
EXTT1=
EXTT2=
EXTT3=
EXTT4=
EXTT5=
EXTT6=
EXTT7=
EXTT8=
EXTT9=
EXTT10=
EXTT11=
EXTT12=
EXTT13=
EXTT14=
EXTT15=
EXTT16=
EXTT17=
EXTT18=
EXTT19=
PLAYORDER=
